<mxfile host="app.diagrams.net" modified="2021-08-23T16:43:37.640Z" agent="5.0 (Windows NT 10.0; Win64; x64) AppleWebKit/537.36 (KHTML, like Gecko) Chrome/92.0.4515.159 Safari/537.36" etag="XhlopQr30naPAq6UZhtQ" version="14.9.7" type="github" pages="7">
  <diagram name="Login/Main" id="c9db0220-8083-56f3-ca83-edcdcd058819">
    <mxGraphModel dx="1038" dy="547" grid="1" gridSize="10" guides="1" tooltips="1" connect="1" arrows="1" fold="1" page="1" pageScale="1.5" pageWidth="826" pageHeight="1169" background="#9AC7BF" math="0" shadow="0">
      <root>
        <mxCell id="0" style=";html=1;" />
        <mxCell id="1" style=";html=1;" parent="0" />
        <mxCell id="_7nxGAOU5TOxWkp-w4K3-1" value="" style="rounded=1;whiteSpace=wrap;html=1;fillColor=#1A1A1A;" vertex="1" parent="1">
          <mxGeometry x="80" y="20" width="930" height="60" as="geometry" />
        </mxCell>
        <mxCell id="_7nxGAOU5TOxWkp-w4K3-3" value="App Name" style="text;html=1;strokeColor=none;fillColor=none;align=center;verticalAlign=middle;whiteSpace=wrap;rounded=0;fontSize=29;fontColor=#4FA7FF;" vertex="1" parent="1">
          <mxGeometry x="390" y="40" width="270" height="20" as="geometry" />
        </mxCell>
        <mxCell id="_7nxGAOU5TOxWkp-w4K3-11" value="Email address/Username" style="fillColor=none;strokeColor=none;align=left;fontSize=14;fontColor=#4FA7FF;" vertex="1" parent="1">
          <mxGeometry width="260" height="40" relative="1" as="geometry">
            <mxPoint x="150" y="140" as="offset" />
          </mxGeometry>
        </mxCell>
        <mxCell id="_7nxGAOU5TOxWkp-w4K3-12" value="" style="html=1;shadow=0;dashed=0;shape=mxgraph.bootstrap.rrect;rSize=5;strokeColor=#999999;align=left;spacing=15;fontSize=14;fontColor=#6C767D;" vertex="1" parent="1">
          <mxGeometry width="800" height="30" relative="1" as="geometry">
            <mxPoint x="150" y="180" as="offset" />
          </mxGeometry>
        </mxCell>
        <mxCell id="_7nxGAOU5TOxWkp-w4K3-13" value="We&#39;ll never share your email with anyone else." style="fillColor=none;strokeColor=none;align=left;spacing=2;fontSize=12;fontColor=#1A1A1A;" vertex="1" parent="1">
          <mxGeometry width="260" height="30" relative="1" as="geometry">
            <mxPoint x="150" y="210" as="offset" />
          </mxGeometry>
        </mxCell>
        <mxCell id="_7nxGAOU5TOxWkp-w4K3-14" value="Password" style="fillColor=none;strokeColor=none;align=left;fontSize=14;fontColor=#4FA7FF;" vertex="1" parent="1">
          <mxGeometry width="260" height="40" relative="1" as="geometry">
            <mxPoint x="150" y="240" as="offset" />
          </mxGeometry>
        </mxCell>
        <mxCell id="_7nxGAOU5TOxWkp-w4K3-15" value="" style="html=1;shadow=0;dashed=0;shape=mxgraph.bootstrap.rrect;rSize=5;strokeColor=#999999;align=left;spacing=15;fontSize=14;fontColor=#6C767D;" vertex="1" parent="1">
          <mxGeometry width="800" height="30" relative="1" as="geometry">
            <mxPoint x="150" y="280" as="offset" />
          </mxGeometry>
        </mxCell>
        <mxCell id="_7nxGAOU5TOxWkp-w4K3-17" value="Sign in" style="html=1;shadow=0;dashed=0;shape=mxgraph.bootstrap.rrect;rSize=5;fillColor=#0085FC;strokeColor=none;align=center;fontSize=14;fontColor=#FFFFFF;" vertex="1" parent="1">
          <mxGeometry width="70" height="40" relative="1" as="geometry">
            <mxPoint x="150" y="360" as="offset" />
          </mxGeometry>
        </mxCell>
        <mxCell id="piruqEcVvw88xG7md0f1-1" value="New?&amp;nbsp; &lt;u&gt;&lt;font color=&quot;#2e2eff&quot;&gt;Register Here&lt;/font&gt;&lt;/u&gt;" style="text;html=1;strokeColor=none;fillColor=none;align=left;verticalAlign=middle;whiteSpace=wrap;rounded=0;fontSize=29;fontColor=#1A1A1A;" vertex="1" parent="1">
          <mxGeometry x="160" y="420" width="530" height="12" as="geometry" />
        </mxCell>
      </root>
    </mxGraphModel>
  </diagram>
  <diagram id="XdSo8zkT5q5WITGw7VHO" name="Registration">
    <mxGraphModel dx="1038" dy="547" grid="1" gridSize="10" guides="1" tooltips="1" connect="1" arrows="1" fold="1" page="1" pageScale="1" pageWidth="850" pageHeight="1100" background="#9AC7BF" math="0" shadow="0">
      <root>
        <mxCell id="9rSkTSQi808rzdNGA-j7-0" />
        <mxCell id="9rSkTSQi808rzdNGA-j7-1" parent="9rSkTSQi808rzdNGA-j7-0" />
        <mxCell id="WfUHGo033-DZdRkD7Sah-1" value="" style="rounded=1;whiteSpace=wrap;html=1;fillColor=#1A1A1A;" vertex="1" parent="9rSkTSQi808rzdNGA-j7-1">
          <mxGeometry x="60" y="30" width="930" height="60" as="geometry" />
        </mxCell>
        <mxCell id="WfUHGo033-DZdRkD7Sah-0" value="" style="group" vertex="1" connectable="0" parent="9rSkTSQi808rzdNGA-j7-1">
          <mxGeometry x="90" y="30" width="930" height="60" as="geometry" />
        </mxCell>
        <mxCell id="WfUHGo033-DZdRkD7Sah-2" value="App Name" style="text;html=1;strokeColor=none;fillColor=none;align=center;verticalAlign=middle;whiteSpace=wrap;rounded=0;fontSize=29;fontColor=#4FA7FF;" vertex="1" parent="WfUHGo033-DZdRkD7Sah-0">
          <mxGeometry x="360" y="20" width="270" height="20" as="geometry" />
        </mxCell>
        <mxCell id="WfUHGo033-DZdRkD7Sah-3" value="Username" style="html=1;shadow=0;dashed=0;shape=mxgraph.bootstrap.rrect;rSize=5;strokeColor=#CED4DA;html=1;whiteSpace=wrap;fillColor=#FFFFFF;fontColor=#7D868C;align=left;spacing=15;spacingLeft=40;fontSize=14;" vertex="1" parent="9rSkTSQi808rzdNGA-j7-1">
          <mxGeometry x="125" y="130" width="800" height="40" as="geometry" />
        </mxCell>
        <mxCell id="WfUHGo033-DZdRkD7Sah-5" value="Email Address" style="html=1;shadow=0;dashed=0;shape=mxgraph.bootstrap.rrect;rSize=5;strokeColor=#CED4DA;html=1;whiteSpace=wrap;fillColor=#FFFFFF;fontColor=#7D868C;align=left;spacingLeft=0;spacing=15;fontSize=14;" vertex="1" parent="9rSkTSQi808rzdNGA-j7-1">
          <mxGeometry x="125" y="190" width="800" height="40" as="geometry" />
        </mxCell>
        <mxCell id="WfUHGo033-DZdRkD7Sah-6" value="@example.com" style="html=1;shadow=0;dashed=0;shape=mxgraph.bootstrap.rightButton;strokeColor=inherit;gradientColor=inherit;fontColor=inherit;fillColor=#E9ECEF;rSize=5;perimeter=none;whiteSpace=wrap;resizeHeight=1;fontSize=14;" vertex="1" parent="WfUHGo033-DZdRkD7Sah-5">
          <mxGeometry x="1" width="120" height="40" relative="1" as="geometry">
            <mxPoint x="-120" as="offset" />
          </mxGeometry>
        </mxCell>
        <mxCell id="WfUHGo033-DZdRkD7Sah-34" value="First name" style="html=1;shadow=0;dashed=0;shape=mxgraph.bootstrap.rrect;rSize=5;strokeColor=#999999;align=left;spacing=15;fontSize=14;fontColor=#6C767D;" vertex="1" parent="9rSkTSQi808rzdNGA-j7-1">
          <mxGeometry x="125" y="250" width="390" height="30" as="geometry" />
        </mxCell>
        <mxCell id="WfUHGo033-DZdRkD7Sah-35" value="Last name" style="html=1;shadow=0;dashed=0;shape=mxgraph.bootstrap.rrect;rSize=5;strokeColor=#999999;align=left;spacing=15;fontSize=14;fontColor=#6C767D;" vertex="1" parent="9rSkTSQi808rzdNGA-j7-1">
          <mxGeometry x="530" y="250" width="390" height="30" as="geometry" />
        </mxCell>
        <mxCell id="WfUHGo033-DZdRkD7Sah-36" value="Date of Birth" style="html=1;shadow=0;dashed=0;shape=mxgraph.bootstrap.rrect;rSize=5;strokeColor=#999999;align=left;spacing=15;fontSize=14;fontColor=#6C767D;" vertex="1" parent="9rSkTSQi808rzdNGA-j7-1">
          <mxGeometry x="125" y="310" width="390" height="30" as="geometry" />
        </mxCell>
        <mxCell id="m-LbC8e8WrS4qlXbVvxq-0" value="New Password" style="html=1;shadow=0;dashed=0;shape=mxgraph.bootstrap.rrect;rSize=5;strokeColor=#CED4DA;html=1;whiteSpace=wrap;fillColor=#FFFFFF;fontColor=#7D868C;align=left;spacing=15;spacingLeft=40;fontSize=14;" vertex="1" parent="9rSkTSQi808rzdNGA-j7-1">
          <mxGeometry x="125" y="360" width="445" height="40" as="geometry" />
        </mxCell>
        <mxCell id="m-LbC8e8WrS4qlXbVvxq-1" value="Confirm Password" style="html=1;shadow=0;dashed=0;shape=mxgraph.bootstrap.rrect;rSize=5;strokeColor=#CED4DA;html=1;whiteSpace=wrap;fillColor=#FFFFFF;fontColor=#7D868C;align=left;spacing=15;spacingLeft=40;fontSize=14;" vertex="1" parent="9rSkTSQi808rzdNGA-j7-1">
          <mxGeometry x="125" y="420" width="445" height="40" as="geometry" />
        </mxCell>
        <mxCell id="m-LbC8e8WrS4qlXbVvxq-2" value="Submit" style="html=1;shadow=0;dashed=0;shape=mxgraph.bootstrap.rrect;rSize=5;strokeColor=none;strokeWidth=1;fillColor=#0085FC;fontColor=#FFFFFF;whiteSpace=wrap;align=left;verticalAlign=middle;spacingLeft=0;fontStyle=1;fontSize=14;spacing=5;" vertex="1" parent="9rSkTSQi808rzdNGA-j7-1">
          <mxGeometry x="140" y="490" width="80" height="40" as="geometry" />
        </mxCell>
        <mxCell id="m-LbC8e8WrS4qlXbVvxq-3" value="Cancel" style="html=1;shadow=0;dashed=0;shape=mxgraph.bootstrap.rrect;rSize=5;strokeColor=none;strokeWidth=1;fillColor=#6C767D;fontColor=#FFFFFF;whiteSpace=wrap;align=left;verticalAlign=middle;spacingLeft=0;fontStyle=1;fontSize=14;spacing=5;" vertex="1" parent="9rSkTSQi808rzdNGA-j7-1">
          <mxGeometry x="230" y="490" width="80" height="40" as="geometry" />
        </mxCell>
        <mxCell id="m-LbC8e8WrS4qlXbVvxq-9" value="" style="group;fontSize=11;" vertex="1" connectable="0" parent="9rSkTSQi808rzdNGA-j7-1">
          <mxGeometry x="660" y="315" width="300" height="105" as="geometry" />
        </mxCell>
        <mxCell id="m-LbC8e8WrS4qlXbVvxq-8" value="Activity Level" style="text;html=1;strokeColor=none;fillColor=none;align=center;verticalAlign=middle;whiteSpace=wrap;rounded=0;fontSize=29;fontColor=#1A1A1A;" vertex="1" parent="m-LbC8e8WrS4qlXbVvxq-9">
          <mxGeometry width="190" height="20" as="geometry" />
        </mxCell>
        <mxCell id="m-LbC8e8WrS4qlXbVvxq-29" value="Sometimes (0-3x per week)" style="html=1;shadow=0;dashed=0;shape=mxgraph.bootstrap.radioButton2;labelPosition=right;verticalLabelPosition=middle;align=left;verticalAlign=middle;gradientColor=#DEDEDE;fillColor=#EDEDED;checked=1;spacing=5;checkedFill=#0085FC;checkedStroke=#ffffff;fontSize=19;fontColor=#1A1A1A;" vertex="1" parent="m-LbC8e8WrS4qlXbVvxq-9">
          <mxGeometry x="30" y="55" width="10" height="10" as="geometry" />
        </mxCell>
        <mxCell id="m-LbC8e8WrS4qlXbVvxq-30" value="Frequently (3+ x per week)" style="html=1;shadow=0;dashed=0;shape=mxgraph.bootstrap.radioButton2;labelPosition=right;verticalLabelPosition=middle;align=left;verticalAlign=middle;gradientColor=#DEDEDE;fillColor=#EDEDED;checked=0;spacing=5;checkedFill=#0085FC;checkedStroke=#ffffff;fontSize=19;fontColor=#1A1A1A;" vertex="1" parent="m-LbC8e8WrS4qlXbVvxq-9">
          <mxGeometry x="30" y="75" width="10" height="10" as="geometry" />
        </mxCell>
        <mxCell id="m-LbC8e8WrS4qlXbVvxq-23" value="Strength" style="html=1;shadow=0;dashed=0;shape=mxgraph.bootstrap.radioButton2;labelPosition=right;verticalLabelPosition=middle;align=left;verticalAlign=middle;gradientColor=#DEDEDE;fillColor=#EDEDED;checked=1;spacing=5;checkedFill=#0085FC;checkedStroke=#ffffff;fontSize=19;fontColor=#1A1A1A;" vertex="1" parent="9rSkTSQi808rzdNGA-j7-1">
          <mxGeometry x="670" y="505" width="10" height="10" as="geometry" />
        </mxCell>
        <mxCell id="m-LbC8e8WrS4qlXbVvxq-24" value="Mobility" style="html=1;shadow=0;dashed=0;shape=mxgraph.bootstrap.radioButton2;labelPosition=right;verticalLabelPosition=middle;align=left;verticalAlign=middle;gradientColor=#DEDEDE;fillColor=#EDEDED;checked=0;spacing=5;checkedFill=#0085FC;checkedStroke=#ffffff;fontSize=19;fontColor=#1A1A1A;" vertex="1" parent="9rSkTSQi808rzdNGA-j7-1">
          <mxGeometry x="670" y="530" width="10" height="10" as="geometry" />
        </mxCell>
        <mxCell id="m-LbC8e8WrS4qlXbVvxq-25" value="Weight Loss" style="html=1;shadow=0;dashed=0;shape=mxgraph.bootstrap.radioButton2;labelPosition=right;verticalLabelPosition=middle;align=left;verticalAlign=middle;gradientColor=#DEDEDE;fillColor=#EDEDED;checked=0;spacing=5;fontColor=#6C767D;checkedFill=#0085FC;checkedStroke=#ffffff;fontSize=19;" vertex="1" parent="9rSkTSQi808rzdNGA-j7-1">
          <mxGeometry x="670" y="560" width="10" height="10" as="geometry" />
        </mxCell>
        <mxCell id="m-LbC8e8WrS4qlXbVvxq-27" value="Fitness Goal" style="text;html=1;strokeColor=none;fillColor=none;align=center;verticalAlign=middle;whiteSpace=wrap;rounded=0;fontSize=25;fontColor=#1A1A1A;" vertex="1" parent="9rSkTSQi808rzdNGA-j7-1">
          <mxGeometry x="680" y="470" width="190" height="20" as="geometry" />
        </mxCell>
      </root>
    </mxGraphModel>
  </diagram>
  <diagram id="pHc2dDtGoLrhySXhodh7" name="Main">
    <mxGraphModel dx="1038" dy="547" grid="1" gridSize="10" guides="1" tooltips="1" connect="1" arrows="1" fold="1" page="1" pageScale="1" pageWidth="850" pageHeight="1100" background="#9AC7BF" math="0" shadow="0">
      <root>
        <mxCell id="lePLtSTRhXZwTNIoqb9m-0" />
        <mxCell id="lePLtSTRhXZwTNIoqb9m-1" parent="lePLtSTRhXZwTNIoqb9m-0" />
        <mxCell id="3e_N9-NYR2hLXSezx8_2-0" value="" style="group" vertex="1" connectable="0" parent="lePLtSTRhXZwTNIoqb9m-1">
          <mxGeometry x="60" y="60" width="930" height="60" as="geometry" />
        </mxCell>
        <mxCell id="nwwWn37-Hg6SBRXv1BAU-0" value="" style="rounded=1;whiteSpace=wrap;html=1;fillColor=#1A1A1A;" vertex="1" parent="3e_N9-NYR2hLXSezx8_2-0">
          <mxGeometry width="930" height="60" as="geometry" />
        </mxCell>
        <mxCell id="nz41oCLB-yxUJpGeJ0Sy-0" value="App Name" style="text;html=1;strokeColor=none;fillColor=none;align=center;verticalAlign=middle;whiteSpace=wrap;rounded=0;fontSize=29;fontColor=#4FA7FF;" vertex="1" parent="3e_N9-NYR2hLXSezx8_2-0">
          <mxGeometry x="-20" y="20" width="270" height="20" as="geometry" />
        </mxCell>
        <mxCell id="7mYpsl8svZa07G-eo5ql-6" value="&lt;font&gt;Account&lt;/font&gt;" style="text;html=1;strokeColor=none;fillColor=none;align=center;verticalAlign=middle;whiteSpace=wrap;rounded=0;fontSize=19;fontColor=#FFFFFF;" vertex="1" parent="3e_N9-NYR2hLXSezx8_2-0">
          <mxGeometry x="860" y="30" width="40" height="20" as="geometry" />
        </mxCell>
        <mxCell id="7mYpsl8svZa07G-eo5ql-7" value="&lt;font&gt;Workout History&lt;/font&gt;" style="text;html=1;strokeColor=none;fillColor=none;align=center;verticalAlign=middle;whiteSpace=wrap;rounded=0;fontSize=19;fontColor=#FFFFFF;" vertex="1" parent="3e_N9-NYR2hLXSezx8_2-0">
          <mxGeometry x="410" y="30" width="160" height="20" as="geometry" />
        </mxCell>
        <mxCell id="7mYpsl8svZa07G-eo5ql-18" value="&lt;font&gt;Workout Catalog&lt;/font&gt;" style="text;html=1;strokeColor=none;fillColor=none;align=center;verticalAlign=middle;whiteSpace=wrap;rounded=0;fontSize=19;fontColor=#FFFFFF;" vertex="1" parent="3e_N9-NYR2hLXSezx8_2-0">
          <mxGeometry x="220" y="30" width="180" height="20" as="geometry" />
        </mxCell>
        <mxCell id="7mYpsl8svZa07G-eo5ql-0" value="Workout Image" style="html=1;shadow=0;dashed=0;shape=mxgraph.bootstrap.rrect;rSize=5;strokeColor=#2D3338;html=1;whiteSpace=wrap;fillColor=#868E96;fontColor=#ffffff;verticalAlign=middle;align=center;spacing=20;fontSize=60;container=0;" vertex="1" parent="lePLtSTRhXZwTNIoqb9m-1">
          <mxGeometry x="160" y="220" width="620" height="200" as="geometry" />
        </mxCell>
        <mxCell id="7mYpsl8svZa07G-eo5ql-1" value="&lt;span style=&quot;font-size: 20px&quot;&gt;&lt;b&gt;Recommended Workout&lt;/b&gt;&lt;/span&gt;" style="fillColor=none;strokeColor=none;fontColor=#ffffff;html=1;verticalAlign=top;align=left;spacing=20;fontSize=14;" vertex="1" parent="lePLtSTRhXZwTNIoqb9m-1">
          <mxGeometry x="160" y="220" width="800" height="60" as="geometry" />
        </mxCell>
        <mxCell id="6URn3e41-EdkBD0kqMsq-0" value="&lt;font&gt;Add Custom Workout&lt;br&gt;&lt;/font&gt;" style="text;html=1;strokeColor=none;fillColor=none;align=center;verticalAlign=middle;whiteSpace=wrap;rounded=0;fontSize=19;fontColor=#FFFFFF;" vertex="1" parent="lePLtSTRhXZwTNIoqb9m-1">
          <mxGeometry x="640" y="90" width="250" height="20" as="geometry" />
        </mxCell>
      </root>
    </mxGraphModel>
  </diagram>
  <diagram name="Workout Catalog" id="aLcl-L5ErGJ21Dkq8hKd">
    <mxGraphModel dx="1038" dy="547" grid="1" gridSize="10" guides="1" tooltips="1" connect="1" arrows="1" fold="1" page="1" pageScale="1" pageWidth="850" pageHeight="1100" background="#9AC7BF" math="0" shadow="0">
      <root>
        <mxCell id="WYbdEHQaj03rt7n9uEtY-0" />
        <mxCell id="WYbdEHQaj03rt7n9uEtY-1" parent="WYbdEHQaj03rt7n9uEtY-0" />
        <mxCell id="WYbdEHQaj03rt7n9uEtY-2" value="" style="group" vertex="1" connectable="0" parent="WYbdEHQaj03rt7n9uEtY-1">
          <mxGeometry x="60" y="60" width="930" height="60" as="geometry" />
        </mxCell>
        <mxCell id="WYbdEHQaj03rt7n9uEtY-3" value="" style="rounded=1;whiteSpace=wrap;html=1;fillColor=#1A1A1A;" vertex="1" parent="WYbdEHQaj03rt7n9uEtY-2">
          <mxGeometry width="930" height="60" as="geometry" />
        </mxCell>
        <mxCell id="WYbdEHQaj03rt7n9uEtY-4" value="App Name" style="text;html=1;strokeColor=none;fillColor=none;align=center;verticalAlign=middle;whiteSpace=wrap;rounded=0;fontSize=29;fontColor=#4FA7FF;" vertex="1" parent="WYbdEHQaj03rt7n9uEtY-2">
          <mxGeometry x="-20" y="20" width="270" height="20" as="geometry" />
        </mxCell>
        <mxCell id="WYbdEHQaj03rt7n9uEtY-5" value="&lt;font&gt;Account&lt;/font&gt;" style="text;html=1;strokeColor=none;fillColor=none;align=center;verticalAlign=middle;whiteSpace=wrap;rounded=0;fontSize=19;fontColor=#FFFFFF;" vertex="1" parent="WYbdEHQaj03rt7n9uEtY-2">
          <mxGeometry x="860" y="30" width="40" height="20" as="geometry" />
        </mxCell>
        <mxCell id="WYbdEHQaj03rt7n9uEtY-6" value="&lt;font&gt;Workout History&lt;/font&gt;" style="text;html=1;strokeColor=none;fillColor=none;align=center;verticalAlign=middle;whiteSpace=wrap;rounded=0;fontSize=19;fontColor=#FFFFFF;" vertex="1" parent="WYbdEHQaj03rt7n9uEtY-2">
          <mxGeometry x="410" y="30" width="160" height="20" as="geometry" />
        </mxCell>
        <mxCell id="WYbdEHQaj03rt7n9uEtY-7" value="&lt;font&gt;Workout Catalog&lt;/font&gt;" style="text;html=1;strokeColor=none;fillColor=none;align=center;verticalAlign=middle;whiteSpace=wrap;rounded=0;fontSize=19;fontColor=#FFFFFF;" vertex="1" parent="WYbdEHQaj03rt7n9uEtY-2">
          <mxGeometry x="220" y="30" width="180" height="20" as="geometry" />
        </mxCell>
        <mxCell id="WYbdEHQaj03rt7n9uEtY-8" value="Upper Body Strength" style="html=1;shadow=0;dashed=0;shape=mxgraph.bootstrap.rrect;rSize=5;strokeColor=#2D3338;html=1;whiteSpace=wrap;fillColor=#868E96;fontColor=#ffffff;verticalAlign=middle;align=center;spacing=20;fontSize=20;container=0;" vertex="1" parent="WYbdEHQaj03rt7n9uEtY-1">
          <mxGeometry x="70" y="160" width="250" height="40" as="geometry" />
        </mxCell>
        <mxCell id="WYbdEHQaj03rt7n9uEtY-10" value="&lt;font&gt;Add Custom Workout&lt;br&gt;&lt;/font&gt;" style="text;html=1;strokeColor=none;fillColor=none;align=center;verticalAlign=middle;whiteSpace=wrap;rounded=0;fontSize=19;fontColor=#FFFFFF;" vertex="1" parent="WYbdEHQaj03rt7n9uEtY-1">
          <mxGeometry x="640" y="90" width="250" height="20" as="geometry" />
        </mxCell>
        <mxCell id="EdLYYb4sKsfsCS-WhI0F-0" value="Cardio" style="html=1;shadow=0;dashed=0;shape=mxgraph.bootstrap.rrect;rSize=5;strokeColor=#2D3338;html=1;whiteSpace=wrap;fillColor=#868E96;fontColor=#ffffff;verticalAlign=middle;align=center;spacing=20;fontSize=20;container=0;" vertex="1" parent="WYbdEHQaj03rt7n9uEtY-1">
          <mxGeometry x="850" y="165" width="130" height="40" as="geometry" />
        </mxCell>
        <mxCell id="EdLYYb4sKsfsCS-WhI0F-1" value="Mobility" style="html=1;shadow=0;dashed=0;shape=mxgraph.bootstrap.rrect;rSize=5;strokeColor=#2D3338;html=1;whiteSpace=wrap;fillColor=#868E96;fontColor=#ffffff;verticalAlign=middle;align=center;spacing=20;fontSize=20;container=0;" vertex="1" parent="WYbdEHQaj03rt7n9uEtY-1">
          <mxGeometry x="690" y="165" width="120" height="55" as="geometry" />
        </mxCell>
        <mxCell id="EdLYYb4sKsfsCS-WhI0F-3" value="Lower Body Strength" style="html=1;shadow=0;dashed=0;shape=mxgraph.bootstrap.rrect;rSize=5;strokeColor=#2D3338;html=1;whiteSpace=wrap;fillColor=#868E96;fontColor=#ffffff;verticalAlign=middle;align=center;spacing=20;fontSize=20;container=0;" vertex="1" parent="WYbdEHQaj03rt7n9uEtY-1">
          <mxGeometry x="390" y="170" width="250" height="50" as="geometry" />
        </mxCell>
      </root>
    </mxGraphModel>
  </diagram>
  <diagram id="JmIUNd6MnAU5AwLoI_AY" name="Workout History">
    <mxGraphModel dx="1038" dy="547" grid="1" gridSize="10" guides="1" tooltips="1" connect="1" arrows="1" fold="1" page="1" pageScale="1" pageWidth="850" pageHeight="1100" math="0" shadow="0">
      <root>
        <mxCell id="E1o2PRguKZm43uwhEAPU-0" />
        <mxCell id="E1o2PRguKZm43uwhEAPU-1" parent="E1o2PRguKZm43uwhEAPU-0" />
      </root>
    </mxGraphModel>
  </diagram>
  <diagram id="yQkZQ6ATMNXNRC4m-w2p" name="Account">
    <mxGraphModel dx="1038" dy="547" grid="1" gridSize="10" guides="1" tooltips="1" connect="1" arrows="1" fold="1" page="1" pageScale="1" pageWidth="850" pageHeight="1100" math="0" shadow="0">
      <root>
        <mxCell id="ecK7CD26oTDhwgEzEdAm-0" />
        <mxCell id="ecK7CD26oTDhwgEzEdAm-1" parent="ecK7CD26oTDhwgEzEdAm-0" />
      </root>
    </mxGraphModel>
  </diagram>
  <diagram id="M-w3Lgz0mWNNnqbOt-za" name="Edit Account">
    <mxGraphModel dx="1038" dy="547" grid="1" gridSize="10" guides="1" tooltips="1" connect="1" arrows="1" fold="1" page="1" pageScale="1" pageWidth="850" pageHeight="1100" math="0" shadow="0">
      <root>
        <mxCell id="lzhAPzCYCUnFFO-gQtut-0" />
        <mxCell id="lzhAPzCYCUnFFO-gQtut-1" parent="lzhAPzCYCUnFFO-gQtut-0" />
      </root>
    </mxGraphModel>
  </diagram>
</mxfile>
